<svg xmlns="http://www.w3.org/2000/svg" width="1200" height="630" viewBox="0 0 1200 630">
  <rect width="1200" height="630" fill="#fff"/>
  <path d="M0 510 210 382l164 42 205-190 248 102 373-229v523H0Z" fill="#eefaf3"/>
  <g stroke="#cceedd" fill="none" stroke-width="2" opacity=".9">
    <path d="m30 481 172-97 161 42 213-191 251 101 347-213"/><path d="M216 388v121M378 421v112M578 236v289M827 337v189"/>
  </g>
  <g transform="translate(88 86)">
    <path d="M0 8v66h66" fill="none" stroke="#2E3D36" stroke-width="14" stroke-linecap="round" stroke-linejoin="round"/>
    <path d="m28 43 17 17 35-38" fill="none" stroke="#50C878" stroke-width="14" stroke-linecap="round" stroke-linejoin="round"/>
    <circle cx="38" cy="4" r="7" fill="#50C878"/>
  </g>
  <text x="190" y="145" fill="#17211c" font-family="Arial,sans-serif" font-size="64" font-weight="700">BUILI</text>
  <text x="88" y="286" fill="#17211c" font-family="Arial,sans-serif" font-size="64" font-weight="700">Know what changed.</text>
  <text x="88" y="358" fill="#17211c" font-family="Arial,sans-serif" font-size="64" font-weight="700">Prove what happened.</text>
  <text x="91" y="424" fill="#64716b" font-family="Arial,sans-serif" font-size="25">Evidence-grounded construction verification.</text>
</svg>
